<svg width="12" height="12" viewBox="0 0 12 12" fill="none" xmlns="http://www.w3.org/2000/svg">
<path d="M6.80002 0.399902C6.3582 0.399902 6.00002 0.758075 6.00002 1.1999C6.00002 1.64173 6.3582 1.9999 6.80002 1.9999H8.86865L3.83434 7.03422C3.52192 7.34664 3.52192 7.85317 3.83434 8.16559C4.14676 8.47801 4.65329 8.47801 4.96571 8.16559L10 3.13127V5.1999C10 5.64173 10.3582 5.9999 10.8 5.9999C11.2419 5.9999 11.6 5.64173 11.6 5.1999V1.1999C11.6 0.758075 11.2419 0.399902 10.8 0.399902H6.80002Z" fill="#003D99"/>
<path d="M2.00002 1.9999C1.11637 1.9999 0.400024 2.71625 0.400024 3.5999V9.9999C0.400024 10.8836 1.11637 11.5999 2.00002 11.5999H8.40003C9.28368 11.5999 10 10.8836 10 9.9999V7.5999C10 7.15808 9.64185 6.7999 9.20003 6.7999C8.7582 6.7999 8.40003 7.15808 8.40003 7.5999V9.9999H2.00002V3.5999L4.40002 3.5999C4.84185 3.5999 5.20002 3.24173 5.20002 2.7999C5.20002 2.35807 4.84185 1.9999 4.40002 1.9999H2.00002Z" fill="#003D99"/>
</svg>
